<svg id="Capa_1" data-name="Capa 1" xmlns="http://www.w3.org/2000/svg" viewBox="0 0 90 60"><defs><style>.cls-1{fill:none;stroke:#82684e;stroke-miterlimit:10;}.cls-2{fill:#dd3402;}</style></defs><path class="cls-1" d="M37.57,31.94c1.44,0,5.19,0,6.36,0a2,2,0,0,1,1.16.41c2.2,1.43,3,1.33,3.38,1.34,3.47.09,4.4-2,4.4-3.05,0-1.49-1.86-2.78-3.28-2.94a5.48,5.48,0,0,0-3.19.51c-1.24.79-1.66,1.26-2.45,1.26-2.2,0-5.34.08-6.07.1a.74.74,0,0,1-.86-.8c0-.74.84-.72.84-.72s4.41,0,5.15,0,.71-1.26-.21-1.26H38.06c-1.53,0-1.35-1.46-.05-1.46l4.83,0c.92,0,1-1.22,0-1.22-1.61,0-3.48.11-4.87.11s-1.39-1.43-.07-1.43H44.3c1.59,0,2.53,2.15,3.42,2.14l2.1-.05v-4h0a3.09,3.09,0,0,0,2.67-3.1,3.13,3.13,0,0,0-3.13-3.12,3.68,3.68,0,0,0-.58.05,4.5,4.5,0,0,0-9,0,3.81,3.81,0,0,0-.59-.05,3.13,3.13,0,0,0,0,6.25v.9"/><path class="cls-2" d="M4.54,35.94c-.2,0-.37.26-.37.59v1.8C4.17,39.79,6,41.08,6,43v3.32a1.48,1.48,0,0,1-1.39,1.56,1.48,1.48,0,0,1-1.38-1.56V44.08h.91v2.63c0,.43.19.77.44.77s.43-.34.43-.77v-3.2c0-1.44-1.85-2.93-1.85-4.61V37a1.42,1.42,0,0,1,1.31-1.49A1.43,1.43,0,0,1,5.77,37v1.92H4.92V36.53C4.92,36.2,4.75,35.94,4.54,35.94Z"/><path class="cls-2" d="M9.6,35.77v-.08h1.47v.08c-.15,0-.27.3-.27.88V46.77c0,.59.12.89.27.89v.08H9.6v-.08c.16,0,.27-.3.27-.89V36.65C9.87,36.07,9.76,35.77,9.6,35.77Z"/><path class="cls-2" d="M17,35.77v-.08h1.44v.08c-.15,0-.27.3-.27.88V46.77c0,.59.12.89.27.89v.08h-1.4v-.08c.15,0,.27-.3.27-.89V39.39l-1.06,8.35h-.16l-1-8.35v7.38c0,.59.11.89.27.89v.08h-1v-.08c.15,0,.27-.3.27-.89V36.65c0-.58-.12-.88-.27-.88v-.08h1.5v.08c-.12,0-.22.24-.22.66,0,.1.73,6.12.73,6.12s.79-6.17.79-6.24C17.23,35.86,17.13,35.77,17,35.77Z"/><path class="cls-2" d="M24.74,37.19v3.36c0,1-.49,1.5-1.15,1.5h-.65v4.72c0,.59.11.89.27.89v.08H21.84v-.08c.15,0,.27-.3.27-.89V36.65c0-.58-.12-.88-.27-.88v-.08h1.75C24.25,35.69,24.74,36.24,24.74,37.19Zm-.88,3.74V36.81c0-.28-.14-.62-.38-.62h-.54v5.36h.54C23.72,41.55,23.86,41.2,23.86,40.93Z"/><path class="cls-2" d="M28.37,35.77v-.08h1.47v.08c-.15,0-.27.3-.27.88V47.33c.8,0,1.37-.85,1.37-2.06h.17v2.47H28.37v-.08c.15,0,.27-.3.27-.89V36.65C28.64,36.07,28.52,35.77,28.37,35.77Z"/><path class="cls-2" d="M37.46,37.78h-.17c0-.78-.67-1.66-1.36-1.66v4.63h.83c.18,0,.32-.19.32-.43h.05v1.52h-.05c0-.24-.14-.43-.32-.43h-.83v5.92a1.7,1.7,0,0,0,1.44-1.77h.16v2.18h-2.8v-.08c.16,0,.27-.3.27-.89V36.65c0-.58-.11-.88-.27-.88v-.08h2.73Z"/><path class="cls-2" d="M47.54,36a.62.62,0,0,0-.57.68V46.2c0,.54.18,1.16.58,1.16s.65-.59.67-1.16V43.54h.58v2.73A1.51,1.51,0,0,1,47.45,48c-.93,0-1.37-.69-1.37-1.68V37.19a1.57,1.57,0,0,1,1.53-1.66,6.37,6.37,0,0,1,1.15.16V37.8h-.1C48.45,37,48.16,36,47.54,36Z"/><path class="cls-2" d="M55.51,37.12v9.19a1.42,1.42,0,1,1-2.81,0V37.12a1.42,1.42,0,1,1,2.81,0ZM54.11,36c-.3,0-.48.4-.48.8v9.91c0,.4.18.8.48.8s.47-.4.47-.8V36.76C54.58,36.36,54.4,36,54.11,36Z"/><path class="cls-2" d="M62.23,37.12v9.19a1.42,1.42,0,1,1-2.82,0V37.12a1.42,1.42,0,1,1,2.82,0ZM60.82,36c-.3,0-.48.4-.48.8v9.91c0,.4.18.8.48.8s.48-.4.48-.8V36.76C61.3,36.36,61.12,36,60.82,36Z"/><path class="cls-2" d="M69.54,47.66v.08H68.09v-.08c.11,0,.19-.31.19-.64a3.44,3.44,0,0,0,0-.42l-.72-6.4-.4.85v5.72c0,.59.12.89.27.89v.08H65.85v-.08c.16,0,.27-.3.27-.89V36.65c0-.58-.11-.88-.27-.88v-.08H67.4v.08c-.15,0-.27.3-.27.88V40.2l1.27-3.6a1.78,1.78,0,0,0,.07-.52c0-.19-.1-.31-.19-.31v-.08h1.29v.08c-.12,0-.31.19-.57.82l-.73,1.76,1,8.36C69.3,47.29,69.36,47.66,69.54,47.66Z"/><path class="cls-2" d="M72.93,35.77v-.08H74.4v.08c-.16,0-.27.3-.27.88V46.77c0,.59.11.89.27.89v.08H72.93v-.08c.15,0,.27-.3.27-.89V36.65C73.2,36.07,73.08,35.77,72.93,35.77Z"/><path class="cls-2" d="M80.83,36.65V47.74h-.61l-1.76-9v8c0,.59.12.89.27.89v.08h-1v-.08c.15,0,.27-.3.27-.89V36.52c0-.37-.17-.75-.29-.75v-.08h1.47v.08c-.06,0-.16.19-.16.35a2,2,0,0,0,0,.47l1.3,6.29V36.65c0-.58-.12-.88-.27-.88v-.08h1v.08C80.94,35.77,80.83,36.07,80.83,36.65Z"/><path class="cls-2" d="M86.62,41c0-.59-.12-.89-.27-.89V40H87.8v.08c-.16,0-.28.3-.28.89v5.77c0,.59.12.89.28.89v.08H86.08a1.42,1.42,0,0,1-1.36-1.59V37.28a1.52,1.52,0,0,1,1.41-1.59h1.33v1.9h-.17c-.19-.71-.62-1.47-1.16-1.47-.3,0-.48.4-.48.79v9.61c0,.39.18.79.48.79h.49Z"/><line class="cls-1" x1="3.37" y1="49.71" x2="88.04" y2="49.71"/><line class="cls-1" x1="3.23" y1="32.43" x2="36.01" y2="32.43"/><line class="cls-1" x1="54.87" y1="32.43" x2="87.65" y2="32.43"/></svg>