<svg xmlns="http://www.w3.org/2000/svg" xmlns:xlink="http://www.w3.org/1999/xlink" viewBox="0 0 197.33 198.61"><defs><style>.cls-1,.cls-8{fill:none;}.cls-2{clip-path:url(#clip-path);}.cls-3{fill:#fff1e6;}.cls-4{fill:#ffc2b0;}.cls-5{fill:#052534;}.cls-6{fill:#fff;}.cls-7{fill:#e37c77;}.cls-8{stroke:#e37c77;stroke-linecap:round;stroke-linejoin:round;}.cls-9{fill:#fefdff;}.cls-10{fill:#3b2146;}</style><clipPath id="clip-path"><circle class="cls-1" cx="98.67" cy="98.67" r="98.67"/></clipPath></defs><title>Testimonio C</title><g id="Capa_2" data-name="Capa 2"><g id="Layer_1" data-name="Layer 1"><g class="cls-2"><circle class="cls-3" cx="98.67" cy="98.67" r="98.67"/><path class="cls-4" d="M113.76,135.38a32.14,32.14,0,0,0-.41,7.15c.15,4.45,3.75,9.57,8.11,11.09,3.73,1.31,8.72,1.34,16.77.29,0,0,25.27-1.31,22.76,41.65H36.34c-2.51-43,22.76-41.65,22.76-41.65,8.05,1.05,13,1,16.78-.29,4.36-1.52,8-6.64,8.1-11.09s-.86-6.72-.86-6.72S94.18,144.75,113.76,135.38Z"/><path class="cls-5" d="M120.53,151.8a9.64,9.64,0,0,0,.93.4c3.73,1.35,8.72,1.38,16.77.3,0,0,26.56.46,22.76,46.11H36.34c-4.17-44,22.76-46.11,22.76-46.11,8.05,1.08,13,1.05,16.78-.3a8.47,8.47,0,0,0,1.23-.56l10.53,10.11,11.09,31.71,2.74,1.5,5.29-31.52Z"/><path class="cls-6" d="M115.24,147s7.4-1.1,5.58,4.91c0,0-4.1,6.81,10.47,13.22,0,0-14.12,2-20.49-2.81,0,0-4.1,21.23-9.11,33.25,0,0-11.83-3.61-15.93-33.25a22.83,22.83,0,0,1-19.12,3.61s12.29-7.41,10-14.62c0,0,2.62-9.32,7.74-1.4a43.35,43.35,0,0,0,10.93,14.42s2.73,25.63,5,29.24l.45-30.45S114.78,152.6,115.24,147Z"/><path class="cls-7" d="M83.3,136s1.41,4.62.3,8.15c.55.32,15.63,8.05,30-.45-.45-4.53-.21-4.23.19-8.53Z"/><path class="cls-4" d="M137.78,93.57c0,27.65-22.55,44.34-38.3,49.22l0,0a6.78,6.78,0,0,1-3.74.53c-18.28-4.66-38.41-19.17-38.81-47.28C56.48,67.37,50.39,42.78,95.47,41,142.45,39.12,137.78,64.87,137.78,93.57Z"/><path class="cls-4" d="M58.7,103.62a22.64,22.64,0,0,1-5,.82c-6.59.43-11.4-4.23-11.53-9.78s4.53-10,11-10.32a12.84,12.84,0,0,1,3,.19"/><path class="cls-8" d="M51.44,99.23c-2.76-.44-7.85-9.63,4.62-10.4"/><path class="cls-7" d="M87.38,67.82c.54-1.21-5.81-6-21.51,2.77,0,0,14.16-4.84,19.23-2.74a4.15,4.15,0,0,1,.64.38A1,1,0,0,0,87.38,67.82Z"/><path d="M70,88.22c0,2.47,1.39,4,3.06,4S75.91,90.4,76,87.94s-.7-4-3.21-4S70,85.5,70,88.22Z"/><path class="cls-9" d="M73.39,85.81c0,.79.38,1.49.91,1.49s1-.67,1-1.46-.47-1.47-1-1.47S73.39,85,73.39,85.81Z"/><path class="cls-8" d="M80.59,89s-6-11-14.68-2.18c0,0-1.76,2.33-4.66,0"/><path class="cls-7" d="M104.82,67.82c-.55-1.21,5.8-6,21.51,2.77,0,0-14.16-4.84-19.24-2.74a4.15,4.15,0,0,0-.64.38A1,1,0,0,1,104.82,67.82Z"/><path d="M122.17,88.22c0,2.47-1.38,4-3.06,4s-2.83-1.79-2.93-4.25.7-4,3.22-4S122.23,85.5,122.17,88.22Z"/><path class="cls-9" d="M121.45,85.76c0,.79-.38,1.49-.91,1.49s-1-.67-1-1.47.46-1.46,1-1.46S121.45,85,121.45,85.76Z"/><path class="cls-8" d="M111.61,89s6-11,14.67-2.18c0,0,1.77,2.33,4.67,0"/><path class="cls-10" d="M56.5,75.29c.54,13.22-.82,72.89,20.92,89.37,0,0-27.23-10.79-24.22-75.08a9,9,0,0,0-.72-4c-3.41-7.77-14.67-39.27,18.36-56.31a10.83,10.83,0,0,0,2.47-1.72c5.77-5.35,34.92-29.28,63,4.34A3.4,3.4,0,0,0,139.53,33c3.42-.65,10.73-.83,16,7.54a25.64,25.64,0,0,1,3.12,18.54,29.7,29.7,0,0,1-2.35,7.4s-1.91,4.61.81,10.62a32.16,32.16,0,0,1,3,10.79c.65,8.42-1.21,21.16-16.46,27.13a17.52,17.52,0,0,1-7.77.79c-1.7-.27-2.83-1.47-1.82-3.23l3.79-27.69c.77-.31,1.12-.66.33-1.53C125.44,69.3,96.71,69.64,81.42,49.08c0,0-17-1.45-24.36,20.56A17.29,17.29,0,0,0,56.5,75.29Z"/><path class="cls-4" d="M134.06,103.62a22.54,22.54,0,0,0,5,.82c6.59.43,11.39-4.23,11.53-9.78s-4.54-10-11.05-10.32a12.76,12.76,0,0,0-3,.19"/><path class="cls-8" d="M141.31,99.23c2.76-.44,7.86-9.63-4.62-10.4"/><path class="cls-8" d="M97.15,81.31s.34,10.74,3.36,17.78c0,0,4.48,7.27-6.94,6.13"/><path class="cls-7" d="M84.17,119.14S95.66,118,96.4,120.28c0,0,1-2.67,12.24-1.14C108.24,121.59,94,131.55,84.17,119.14Z"/><path class="cls-8" d="M83,118.67s15.56,7.36,26.66.1"/><path class="cls-8" d="M107,117.42s3.94-.31,3.74,3.12"/><path class="cls-8" d="M85.83,117.42s-3.94-.31-3.73,3.12"/></g></g></g></svg>