<svg xmlns="http://www.w3.org/2000/svg" xmlns:xlink="http://www.w3.org/1999/xlink" viewBox="0 0 197.33 198.95"><defs><style>.cls-1,.cls-10,.cls-8{fill:none;}.cls-2{fill:#fff1e6;}.cls-3{clip-path:url(#clip-path);}.cls-4{fill:#6cbdbe;}.cls-5{fill:#ffc2b0;}.cls-6{fill:#e37c77;}.cls-7{fill:#fefdff;}.cls-8{stroke:#e37c77;}.cls-10,.cls-8{stroke-linecap:round;stroke-linejoin:round;}.cls-9{fill:#232a46;}.cls-10{stroke:#5b2316;}.cls-11{fill:#05adba;}</style><clipPath id="clip-path"><circle class="cls-1" cx="98.67" cy="98.67" r="98.67"/></clipPath></defs><title>Testimonio B</title><g id="Capa_2" data-name="Capa 2"><g id="Layer_1" data-name="Layer 1"><circle class="cls-2" cx="98.67" cy="98.67" r="98.67"/><g class="cls-3"><path class="cls-4" d="M113.72,151.23c34.73,7.46,47.93,16.88,47.93,35.75v12h-126V187c0-19.34,13.66-27.51,49.76-36"/><path class="cls-5" d="M87.07,137.07s1.7,7.73-1.83,14c0,0,13.26,15.69,28.53.13-.52-.53-3.16-5.43-2.15-14.8Z"/><path class="cls-6" d="M87.08,136a38.67,38.67,0,0,1,.35,7s13.55,7,24.06-.1a76,76,0,0,1,0-8.1Z"/><path class="cls-5" d="M100.09,140.73h0c-14.3-.73-25.2-10.08-31.1-22.81a45.56,45.56,0,0,1-4.1-19.25V68.45A21.45,21.45,0,0,1,86.34,47H113.6a21.45,21.45,0,0,1,21.45,21.45V96.32a50.16,50.16,0,0,1-6.73,25.47C122,132.47,111.74,139.74,100.09,140.73Z"/><path d="M119.94,91.06c0,2.23-1.26,3.59-2.77,3.59s-2.56-1.62-2.65-3.85.63-3.61,2.91-3.59S120,88.6,119.94,91.06Z"/><path class="cls-7" d="M119,89.09c0,.74-.36,1.4-.86,1.4s-1-.63-1-1.38.44-1.37.93-1.37S119,88.34,119,89.09Z"/><path class="cls-6" d="M106.4,78.32c-.51-.59,4.85-6.46,21.08,0,0,0-15.06-3-19.23,0A1.14,1.14,0,0,1,106.4,78.32Z"/><path class="cls-8" d="M109.77,91.51s6.38-8.64,14.14-1.63c0,0,2,1.75,4.38-.62"/><path d="M76.42,91.06c0,2.23,1.25,3.59,2.77,3.59S81.75,93,81.84,90.8s-.63-3.61-2.91-3.59S76.38,88.6,76.42,91.06Z"/><path class="cls-7" d="M77.36,89.09c0,.74.36,1.4.86,1.4s1-.63,1-1.38-.44-1.37-.93-1.37S77.36,88.34,77.36,89.09Z"/><path class="cls-6" d="M90,78.32c.51-.59-4.85-6.46-21.08,0,0,0,15.06-3,19.23,0A1.13,1.13,0,0,0,90,78.32Z"/><path class="cls-8" d="M86.39,91.41S80,82.77,72.25,89.78c0,0-2,1.75-4.38-.63"/><path class="cls-8" d="M97,83.27s.11,11.29-3.81,19.58c0,0-6.86,15.76,11.75,9.33"/><path class="cls-9" d="M65.14,103.64,62.24,87.1c-.18-1-.21-.77-1-1.39l-.55-.28c-.3,0-.6-1.2-.67-1.59-.74-4.17-4.82-29.45-1.47-37.39,0,0-10.87-1.71-8.43-17.35,0,0,4.89,7.94,10.51,7.08,0,0-7.94-2.68-5.74-15.39-.61.36,3.42,8.31,8.43,10.75A15.71,15.71,0,0,1,58.91,17s2.81,7.82,8.92,11.24c0,0-2.93-4.4-2.93-7.94,0,0,2.93,4.52,4.52,4.89,0,0-5.5-7.21-2.81-12.71,0,0,.85,12.58,28.59,10.14,0,0,28.11-6.23,33.49,14.54,0,0,12.95.25,12.95,14.79,0,0-1.31,18.73-4.25,33.39l-2.35,14s-.25-7.87-.67-13.68c-.19-2.64-.13-5.71-1.56-8s-2.62-6.3-2.17-12.83c0,0,1.05-10.24-17.72-15.3-4.13-1.12-8.83-1.05-13.1-.92-4.9.15-11.08-.19-16.22,1,0,0-14.3,2.26-13.08,13,0,0,.65,3.47-3.77,13.34a25.09,25.09,0,0,0-1.67,10.67Z"/><circle class="cls-10" cx="79.44" cy="93.13" r="11.91"/><circle class="cls-10" cx="116.83" cy="93.13" r="11.91"/><path class="cls-10" d="M91.57,91.51a13.85,13.85,0,0,1,13,.95"/><line class="cls-10" x1="128.81" y1="92.12" x2="137.15" y2="85.16"/><line class="cls-10" x1="67.53" y1="90.99" x2="62.18" y2="84.88"/><path class="cls-8" d="M92.06,121.59s6.07,4,14.57-.43a11.18,11.18,0,0,0,1.73-1.17c.55-.43,1.52-.8,2.44.91"/><path class="cls-8" d="M92.52,124.66s6.76,4,13.06-.16"/><path class="cls-5" d="M137.13,84.76s7.63-3.91,7.63,2.57c0,0-1.95,18.08-10.88,17.84Z"/><path class="cls-5" d="M62.42,84.58s-7.63-3.91-7.63,2.56c0,0,1.94,18.09,10.87,17.84Z"/><path class="cls-8" d="M137.73,91.84s1.87-4.8,3.85-4.1"/><path class="cls-8" d="M62.39,91.84s-1.87-4.8-3.85-4.1"/><path class="cls-11" d="M85.07,151s6.19,7.12,14.1,7.17c0,0,7,.93,14.73-7,0,0,3.14.64,4.27,1,0,0-5.7,10.31-19.59,10.17,0,0-11.74.54-17.83-10.32C80.75,152,83.65,151.37,85.07,151Z"/></g></g></g></svg>